<svg width="32" height="32" viewBox="0 0 32 32" fill="none" xmlns="http://www.w3.org/2000/svg">
<g clip-path="url(#clip0_207_89963)">
<path d="M23.805 8.19556C23.68 8.07058 23.5105 8.00037 23.3337 8.00037C23.1569 8.00037 22.9874 8.07058 22.8623 8.19556L16.0003 15.0576L9.13835 8.19556C9.01333 8.07058 8.84379 8.00037 8.66701 8.00037C8.49024 8.00037 8.3207 8.07058 8.19568 8.19556C8.0707 8.32058 8.00049 8.49011 8.00049 8.66689C8.00049 8.84367 8.0707 9.01321 8.19568 9.13822L15.0577 16.0002L8.19568 22.8622C8.0707 22.9872 8.00049 23.1568 8.00049 23.3336C8.00049 23.5103 8.0707 23.6799 8.19568 23.8049C8.3207 23.9299 8.49024 24.0001 8.66701 24.0001C8.84379 24.0001 9.01333 23.9299 9.13835 23.8049L16.0003 16.9429L22.8623 23.8049C22.9874 23.9299 23.1569 24.0001 23.3337 24.0001C23.5105 24.0001 23.68 23.9299 23.805 23.8049C23.93 23.6799 24.0002 23.5103 24.0002 23.3336C24.0002 23.1568 23.93 22.9872 23.805 22.8622L16.943 16.0002L23.805 9.13822C23.93 9.01321 24.0002 8.84367 24.0002 8.66689C24.0002 8.49011 23.93 8.32058 23.805 8.19556Z" fill="#374957"/>
</g>
<defs>
<clipPath id="clip0_207_89963">
<rect width="16" height="16" fill="white" transform="translate(8 8)"/>
</clipPath>
</defs>
</svg>
