<svg width="586" height="300" viewBox="0 0 586 300" fill="none" xmlns="http://www.w3.org/2000/svg">
<path fill-rule="evenodd" clip-rule="evenodd" d="M17.2821 0.339898L499.082 17.6199C522.542 18.4599 532.242 43.3899 541.752 69.4399L584.422 186.31C588.272 196.86 576.632 207.14 567.132 207.31L111.022 215.37C72.8021 218.12 41.1621 226.19 47.2121 299.58C10.4321 270.46 3.08209 262.23 2.19209 192.87L0.00209372 21.3399C-0.147906 9.7899 7.78209 -0.00010246 17.2921 0.339898H17.2821Z" fill="#FF0000"/>
<path fill-rule="evenodd" clip-rule="evenodd" d="M56.852 175.44L75.322 52.45H111.242L139.812 115.23C140.042 115.91 140.272 116.57 140.492 117.2C140.722 117.83 140.952 118.43 141.172 119C141.742 120.71 142.172 122.48 142.452 124.3C142.732 126.12 142.932 128.01 143.052 129.94V126.26C143.052 125.06 143.112 123.84 143.222 122.58C143.332 121.33 143.452 120.07 143.562 118.82C143.672 117.57 143.792 116.37 143.902 115.23L153.312 52.45H189.912L171.092 175.44H134.832L105.752 111.47C105.292 110.44 104.922 109.27 104.642 107.96C104.352 106.65 104.102 105.31 103.872 103.94C103.762 103.26 103.672 102.54 103.612 101.8C103.552 101.06 103.472 100.4 103.352 99.83C103.352 99.49 103.322 99.1999 103.262 98.9699C103.202 98.7399 103.172 98.5099 103.172 98.2899V101.88C103.172 103.7 103.112 105.47 103.002 107.18C102.892 108.89 102.722 110.6 102.492 112.31L93.252 175.43H56.822L56.852 175.44Z" fill="white"/>
<path fill-rule="evenodd" clip-rule="evenodd" d="M195.232 175.44L214.042 52.45H309.152L304.702 81.7H247.912L245.182 98.64H295.642L291.192 126.01H240.902L238.332 145.68H298.712L294.442 175.44H195.232Z" fill="white"/>
<path fill-rule="evenodd" clip-rule="evenodd" d="M323.002 175.44L315.822 52.45H351.232V116.94C351.232 118.19 351.202 119.39 351.142 120.53C351.082 121.67 351.002 122.81 350.882 123.95C350.762 125.09 350.652 126.23 350.542 127.37C350.432 128.51 350.312 129.65 350.202 130.79C350.312 130.45 350.402 130.08 350.462 129.68C350.522 129.28 350.552 128.91 350.552 128.57C350.892 126.75 351.262 124.92 351.662 123.1C352.062 121.28 352.602 119.51 353.292 117.8L376.042 52.46H406.662L407.522 116.26V118.31C407.522 120.36 407.462 122.39 407.352 124.38C407.242 126.38 407.072 128.34 406.842 130.28C407.072 129.25 407.272 128.2 407.442 127.12C407.612 126.04 407.812 124.98 408.042 123.96C408.272 122.93 408.522 121.88 408.812 120.8C409.102 119.72 409.412 118.66 409.752 117.64L430.792 52.4699H467.742L421.562 175.46H384.782L382.392 113.37V111.83C382.392 110.92 382.422 110.03 382.482 109.18C382.542 108.32 382.572 107.44 382.572 106.53C382.682 105.62 382.802 104.73 382.912 103.88C383.022 103.02 383.142 102.14 383.252 101.23C383.142 101.57 383.052 101.94 382.992 102.34C382.932 102.74 382.852 103.17 382.732 103.62C382.732 103.85 382.702 104.1 382.642 104.39C382.582 104.67 382.502 104.93 382.382 105.16C382.152 106.53 381.872 107.87 381.522 109.18C381.182 110.49 380.782 111.77 380.322 113.03L359.622 175.46H323.022L323.002 175.44Z" fill="white"/>
</svg>
