<svg width="22" height="22" viewBox="0 0 22 22" fill="none" xmlns="http://www.w3.org/2000/svg">
<path d="M19.51 7.58592L14.0551 6.79315L11.6167 1.84959C11.5501 1.71424 11.4405 1.60467 11.3051 1.53807C10.9657 1.37049 10.5532 1.51014 10.3835 1.84959L7.94499 6.79315L2.49011 7.58592C2.33972 7.60741 2.20222 7.6783 2.09695 7.78573C1.96968 7.91654 1.89954 8.09252 1.90196 8.27502C1.90438 8.45751 1.97915 8.63157 2.10984 8.75897L6.05652 12.6068L5.12409 18.0402C5.10223 18.1666 5.11621 18.2966 5.16447 18.4155C5.21272 18.5343 5.29331 18.6372 5.39709 18.7126C5.50088 18.788 5.62371 18.8328 5.75165 18.8419C5.8796 18.851 6.00754 18.8241 6.12097 18.7642L11.0001 16.199L15.8792 18.7642C16.0124 18.8351 16.1671 18.8588 16.3153 18.833C16.6891 18.7685 16.9405 18.414 16.876 18.0402L15.9436 12.6068L19.8903 8.75897C19.9977 8.6537 20.0686 8.51619 20.0901 8.3658C20.1481 7.98983 19.886 7.64178 19.51 7.58592Z" fill="#F5BD0C"/>
</svg>
